# xmcd
#
# Track frame offsets: 
#        150
#        22183
#        44544
#        62855
#        81463
#        101395
#        119816
#        137887
#        162269
#        183619
#        202775
#        218047
#        240185
#        254995
#        265540
#        275826
#        300822
#
# Disc length: 4310 seconds
#
# Revision: 0
# Processed by: cddbd v1.5.2PL0 Copyright (c) Steve Scherf et al.
# Submitted via: ExactAudioCopyFreeDBPlugin 1.0
#
DISCID=fc10d411
DTITLE=Various Artist - Most Wanted Vol.5
DYEAR=2006
DGENRE=Hip-Hop
TTITLE0=Diamond D - 5 Fingas Of Death (feat. Big L, Lord Finesse, A.G.
TTITLE0=and Fat Joe)
TTITLE1=EPMD - Headbanger (feat. Redman and K-Solo) [Remix Radio Edit]
TTITLE2=Black Sheep - The Choice Is Yours [Revisited]
TTITLE3=Beastie Boys - No Sleep Till Brooklyn
TTITLE4=Dream Warriors - My Definiton Of A Boombastic Jazz Style
TTITLE5=Slick Rick - Mona Lisa
TTITLE6=Young Black Teenagers - Tap The Bottle
TTITLE7=Eric B. and Rakim - Let The Rhythm Hit 'Em
TTITLE8=Redman - Rockafella
TTITLE9=Group Home - Up Against The Wall [Low Budget Mix]
TTITLE10=Interlligent Hoodlum - At Large
TTITLE11=LL Cool J - Jingling Baby [Remixed But Still Jingling]
TTITLE12=Method Man - Method Man [Remix]
TTITLE13=Nice and Smooth - Pump It Up
TTITLE14=Method Man and Redman - Da Rockwilder
TTITLE15=Ultra Magnetic MC's - Poppa Large [Eastcoast Mix]
TTITLE16=Slick Rick - Teacher, Teacher
EXTD=
EXTT0=
EXTT1=
EXTT2=
EXTT3=
EXTT4=
EXTT5=
EXTT6=
EXTT7=
EXTT8=
EXTT9=
EXTT10=
EXTT11=
EXTT12=
EXTT13=
EXTT14=
EXTT15=
EXTT16=
PLAYORDER=
